Max and Missy have been best friends for as long as they can remember, and now
Max is falling in love with her. But strange things start happening to him at
school. He can see through walls, hear distant voices, and he suddenly has
super-human strength!



General
Complete name : Missy.and.the.Maxinator.2011.DVDRiP.DivX.AC3-SiC.avi
Format : AVI
Format/Info : Audio Video Interleave
File size : 1.31 GiB
Duration : 1h 38mn
Overall bit rate : 1 897 Kbps

Video
ID : 0
Format : MPEG-4 Visual
Format settings, BVOP : Yes
Format settings, QPel : No
Format settings, GMC : No warppoints
Format settings, Matrix : Default (H.263)
Codec ID : DX50
Codec ID/Hint : DivX 5
Duration : 1h 38mn
Bit rate : 1 441 Kbps
Width : 720 pixels
Height : 400 pixels
Display aspect ratio : 16:9
Frame rate : 23.976 fps
Color space : YUV
Chroma subsampling : 4:2:0
Bit depth : 8 bits
Scan type : Progressive
Compression mode : Lossy
Bits/(Pixel*Frame) : 0.209
Stream size : 1 015 MiB (76%)
Writing library : DivX 6.8.5 (UTC 2009-08-20)

Audio
ID : 1
Format : AC-3
Format/Info : Audio Coding 3
Mode extension : CM (complete main)
Codec ID : 2000
Duration : 1h 38mn
Bit rate mode : Constant
Bit rate : 448 Kbps
Channel(s) : 6 channels
Channel positions : Front: L C R, Side: L R, LFE
Sampling rate : 48.0 KHz
Bit depth : 16 bits
Compression mode : Lossy
Stream size : 316 MiB (24%)
Alignment : Aligned on interleaves
Interleave, duration : 64 ms (1.53 video frames)
Interleave, preload duration : 192 ms

 
http://www.imdb.com/title/tt1362264/





 
http://leetleech.org/images/43044362766781262356.png
 
http://leetleech.org/images/42365376291325687616.png
 
http://leetleech.org/images/75511225800782281151.png